<svg id="Layer_1" data-name="Layer 1" xmlns="http://www.w3.org/2000/svg" xmlns:xlink="http://www.w3.org/1999/xlink" viewBox="0 0 341.85 288"><defs><style>.cls-1{fill:url(#linear-gradient);}.cls-2{fill:url(#linear-gradient-2);}.cls-3{fill:url(#linear-gradient-3);}.cls-4{fill:url(#linear-gradient-4);}.cls-5{fill:url(#linear-gradient-5);}.cls-6{fill:none;}.cls-7{clip-path:url(#clip-path);}.cls-8{clip-path:url(#clip-path-2);}.cls-9{fill:#05c6f3;}.cls-10{clip-path:url(#clip-path-3);}.cls-11{fill:url(#linear-gradient-7);}.cls-12{clip-path:url(#clip-path-5);}.cls-13{fill:url(#linear-gradient-8);}.cls-14{clip-path:url(#clip-path-7);}.cls-15{fill:url(#linear-gradient-9);}.cls-16{clip-path:url(#clip-path-9);}.cls-17{fill:url(#linear-gradient-10);}.cls-18{clip-path:url(#clip-path-10);}.cls-19{fill:url(#linear-gradient-11);}.cls-20{clip-path:url(#clip-path-12);}.cls-21{fill:url(#linear-gradient-12);}.cls-22{clip-path:url(#clip-path-13);}.cls-23{fill:url(#linear-gradient-13);}.cls-24{clip-path:url(#clip-path-14);}.cls-25{fill:url(#linear-gradient-14);}.cls-26{clip-path:url(#clip-path-15);}.cls-27{fill:url(#linear-gradient-15);}.cls-28{clip-path:url(#clip-path-16);}.cls-29{fill:url(#linear-gradient-16);}.cls-30{clip-path:url(#clip-path-17);}.cls-31{fill:url(#linear-gradient-17);}.cls-32{clip-path:url(#clip-path-18);}.cls-33{fill:url(#linear-gradient-18);}.cls-34{clip-path:url(#clip-path-19);}.cls-35{fill:url(#linear-gradient-19);}.cls-36{clip-path:url(#clip-path-20);}.cls-37{fill:url(#linear-gradient-20);}.cls-38{clip-path:url(#clip-path-21);}.cls-39{fill:url(#linear-gradient-21);}.cls-40{clip-path:url(#clip-path-22);}.cls-41{fill:url(#linear-gradient-22);}.cls-42{clip-path:url(#clip-path-23);}.cls-43{fill:url(#linear-gradient-23);}.cls-44{clip-path:url(#clip-path-24);}.cls-45{mask:url(#mask);}.cls-46{fill:url(#linear-gradient-24);}.cls-47{clip-path:url(#clip-path-25);}.cls-48{fill:url(#linear-gradient-25);}.cls-49{clip-path:url(#clip-path-26);}.cls-50{fill:url(#linear-gradient-26);}.cls-51{clip-path:url(#clip-path-28);}.cls-52{mask:url(#mask-2);}.cls-53{fill:url(#linear-gradient-28);}.cls-54{clip-path:url(#clip-path-30);}.cls-55{mask:url(#mask-3);}.cls-56{fill:url(#linear-gradient-29);}.cls-57{clip-path:url(#clip-path-32);}.cls-58{mask:url(#mask-4);}.cls-59{fill:url(#linear-gradient-30);}.cls-60{clip-path:url(#clip-path-33);}.cls-61{mask:url(#mask-5);}.cls-62{fill:url(#linear-gradient-31);}.cls-63{clip-path:url(#clip-path-35);}.cls-64{fill:url(#linear-gradient-33);}.cls-65{clip-path:url(#clip-path-36);}.cls-66{fill:url(#linear-gradient-34);}.cls-67{clip-path:url(#clip-path-38);}.cls-68{fill:url(#linear-gradient-36);}.cls-69{clip-path:url(#clip-path-40);}.cls-70{fill:url(#linear-gradient-38);}.cls-71{clip-path:url(#clip-path-42);}.cls-72{fill:url(#linear-gradient-40);}.cls-73{clip-path:url(#clip-path-43);}.cls-74{fill:url(#linear-gradient-41);}.cls-75{clip-path:url(#clip-path-44);}.cls-76{fill:url(#linear-gradient-42);}.cls-77{clip-path:url(#clip-path-45);}.cls-78{fill:url(#linear-gradient-43);}.cls-79{clip-path:url(#clip-path-46);}.cls-80{fill:url(#linear-gradient-44);}.cls-81{fill:url(#linear-gradient-45);}.cls-82{clip-path:url(#clip-path-48);}.cls-83{fill:url(#linear-gradient-46);}.cls-84{clip-path:url(#clip-path-49);}.cls-85{fill:url(#linear-gradient-47);}.cls-86{clip-path:url(#clip-path-50);}.cls-87{fill:url(#linear-gradient-48);}.cls-88{fill:url(#linear-gradient-49);}.cls-89{clip-path:url(#clip-path-52);}.cls-90{fill:url(#linear-gradient-50);}.cls-91{fill:url(#linear-gradient-51);}.cls-92{clip-path:url(#clip-path-54);}.cls-93{fill:url(#linear-gradient-52);}</style><linearGradient id="linear-gradient" x1="251.74" y1="173.23" x2="257.6" y2="173.23" gradientTransform="matrix(0, 38.71, 38.71, 0, -6669.56, -9669.65)" gradientUnits="userSpaceOnUse"><stop offset="0"/><stop offset="0.07" stop-color="#040404"/><stop offset="0.14" stop-color="#0f0f0f"/><stop offset="0.2" stop-color="#222"/><stop offset="0.26" stop-color="#3d3d3d"/><stop offset="0.33" stop-color="#606060"/><stop offset="0.39" stop-color="#8a8a8a"/><stop offset="0.45" stop-color="#bdbdbd"/><stop offset="0.51" stop-color="#f5f5f5"/><stop offset="0.52" stop-color="#fff"/><stop offset="0.54" stop-color="#d6d6d6"/><stop offset="0.57" stop-color="#aaa"/><stop offset="0.6" stop-color="#818181"/><stop offset="0.63" stop-color="#5e5e5e"/><stop offset="0.66" stop-color="#414141"/><stop offset="0.7" stop-color="#292929"/><stop offset="0.74" stop-color="#161616"/><stop offset="0.79" stop-color="#0a0a0a"/><stop offset="0.86" stop-color="#020202"/><stop offset="1"/></linearGradient><linearGradient id="linear-gradient-2" x1="251.74" y1="173.14" x2="257.6" y2="173.14" gradientTransform="matrix(0, 38.71, 38.71, 0, -6670.32, -9669.65)" xlink:href="#linear-gradient"/><linearGradient id="linear-gradient-3" x1="251.74" y1="172.82" x2="257.6" y2="172.82" gradientTransform="matrix(0, 38.71, 38.71, 0, -6672.85, -9669.65)" xlink:href="#linear-gradient"/><linearGradient id="linear-gradient-4" x1="251.74" y1="173.29" x2="257.6" y2="173.29" gradientTransform="matrix(0, 38.71, 38.71, 0, -6669.09, -9669.65)" xlink:href="#linear-gradient"/><linearGradient id="linear-gradient-5" x1="251.74" y1="173.26" x2="257.6" y2="173.26" gradientTransform="matrix(0, 38.71, 38.71, 0, -6669.35, -9669.65)" xlink:href="#linear-gradient"/><clipPath id="clip-path"><rect class="cls-6" width="337.83" height="400.09"/></clipPath><clipPath id="clip-path-2"><rect class="cls-6" width="337.82" height="400.09"/></clipPath><clipPath id="clip-path-3"><path class="cls-6" d="M212.2,171.47h0a0,0,0,0,0,0,0,0,0,0,0,1,0,0"/></clipPath><linearGradient id="linear-gradient-7" x1="212.2" y1="171.46" x2="212.21" y2="171.46" gradientTransform="matrix(0, 0, 0, 0, 288.59, 140.41)" gradientUnits="userSpaceOnUse"><stop offset="0" stop-color="#05c6f3"/><stop offset="1" stop-color="#0359d2"/></linearGradient><clipPath id="clip-path-5"><polygon class="cls-6" points="212.19 171.48 212.2 171.48 212.2 171.47 212.19 171.48"/></clipPath><linearGradient id="linear-gradient-8" x1="212.19" y1="171.48" x2="212.2" y2="171.48" gradientTransform="matrix(0, 0, 0, 0, 288.41, 140.54)" xlink:href="#linear-gradient-7"/><clipPath id="clip-path-7"><path class="cls-6" d="M212.21,171.45a0,0,0,0,1,0,0h0v0Z"/></clipPath><linearGradient id="linear-gradient-9" x1="212.2" y1="171.46" x2="212.21" y2="171.46" gradientTransform="matrix(0, 0, 0, 0, 288.7, 140.34)" xlink:href="#linear-gradient-7"/><clipPath id="clip-path-9"><polygon class="cls-6" points="212.2 171.47 212.2 171.48 212.2 171.46 212.2 171.47"/></clipPath><linearGradient id="linear-gradient-10" x1="212.2" y1="171.47" x2="212.2" y2="171.47" gradientTransform="matrix(0, 0, 0, 0, 288.41, 140.54)" xlink:href="#linear-gradient-7"/><clipPath id="clip-path-10"><path class="cls-6" d="M212.08,171.73l.06-.14a1,1,0,0,0-.06.14m.06-.14a.47.47,0,0,0,.05-.1h0a.54.54,0,0,1-.05.11"/></clipPath><linearGradient id="linear-gradient-11" x1="-1246.95" y1="-434.74" x2="-1241.1" y2="-434.74" gradientTransform="matrix(0.05, 0, 0, -0.05, 276.15, 149.2)" xlink:href="#linear-gradient-7"/><clipPath id="clip-path-12"><path class="cls-6" d="M212,172a.87.87,0,0,0-.07.17,1.34,1.34,0,0,1,.07-.18h0m0,0c0-.07.07-.15.11-.21s.08-.16.11-.24c-.08.14-.15.3-.22.45"/></clipPath><linearGradient id="linear-gradient-12" x1="-1246.95" y1="-437.94" x2="-1241.1" y2="-437.94" gradientTransform="matrix(0.05, 0, 0, -0.05, 276.15, 149.24)" xlink:href="#linear-gradient-7"/><clipPath id="clip-path-13"><path class="cls-6" d="M307,189c-.47-1.6-1-3.15-1.64-4.66.61,1.51,1.17,3.06,1.64,4.66"/></clipPath><linearGradient id="linear-gradient-13" x1="251.48" y1="182.66" x2="257.33" y2="182.66" gradientTransform="matrix(0, -9.63, -9.63, 0, 2065.89, 2595.09)" xlink:href="#linear-gradient-7"/><clipPath id="clip-path-14"><path class="cls-6" d="M137.74,126.77c5.32-.76,10.73-1.35,16.22-1.74-5.49.39-10.9,1-16.22,1.74"/></clipPath><linearGradient id="linear-gradient-14" x1="238.68" y1="179.35" x2="244.54" y2="179.35" gradientTransform="matrix(0, 9.44, 9.44, 0, -1546.43, -2129.75)" xlink:href="#linear-gradient-7"/><clipPath id="clip-path-15"><path class="cls-6" d="M205.69,127.5l.25-.4-2.9-.43c.32,0,1.82.58,2.65.83"/></clipPath><linearGradient id="linear-gradient-15" x1="238.68" y1="179.36" x2="244.54" y2="179.36" gradientTransform="matrix(0, 9.44, 9.44, 0, -1487.89, -2187.23)" xlink:href="#linear-gradient-7"/><clipPath id="clip-path-16"><path class="cls-6" d="M220.6,102.5a1.86,1.86,0,0,0,.1-.2c-6.19-1.08-13-2-20-2.71q10.15,1.09,19.86,2.91"/></clipPath><linearGradient id="linear-gradient-16" x1="238.68" y1="181.66" x2="244.54" y2="181.66" gradientTransform="matrix(0, 9.44, 9.44, 0, -1503.38, -2218.92)" xlink:href="#linear-gradient-7"/><clipPath id="clip-path-17"><path class="cls-6" d="M132.92,127.54l4.55,6.52-4.33-6.55-.22,0"/></clipPath><linearGradient id="linear-gradient-17" x1="251.75" y1="190.61" x2="257.6" y2="190.61" gradientTransform="matrix(0, -11.15, -11.15, 0, 2260.84, 3021.93)" xlink:href="#linear-gradient-7"/><clipPath id="clip-path-18"><path class="cls-6" d="M138.13,135l-.62-.87.62.87"/></clipPath><linearGradient id="linear-gradient-18" x1="251.75" y1="190.54" x2="257.6" y2="190.54" gradientTransform="matrix(0, -11.15, -11.15, 0, 2262.63, 3021.23)" xlink:href="#linear-gradient-7"/><clipPath id="clip-path-19"><path class="cls-6" d="M104.05,134.35c3.48,5.86,23.18,34.06,23.18,34.06S106.7,139,104.13,134.32c0,0,0,0-.08,0"/></clipPath><linearGradient id="linear-gradient-19" x1="251.75" y1="192.54" x2="257.6" y2="192.54" gradientTransform="matrix(0, -11.15, -11.15, 0, 2262.76, 3030.89)" xlink:href="#linear-gradient-7"/><clipPath id="clip-path-20"><path class="cls-6" d="M119.57,102.73l.53-.09c-1.86-5.28-3.71-11.8-3.95-17.76a54.42,54.42,0,0,0,3.42,17.85"/></clipPath><linearGradient id="linear-gradient-20" x1="241.88" y1="158.77" x2="247.73" y2="158.77" gradientTransform="matrix(0, 7.59, 7.59, 0, -1087.44, -1797.29)" xlink:href="#linear-gradient-7"/><clipPath id="clip-path-21"><path class="cls-6" d="M123.76,55.65c.76-1.28,1.58-2.52,2.44-3.74-.86,1.22-1.68,2.46-2.44,3.74"/></clipPath><linearGradient id="linear-gradient-21" x1="241.88" y1="159.7" x2="247.73" y2="159.7" gradientTransform="matrix(0, 7.59, 7.59, 0, -1087.63, -1797.61)" xlink:href="#linear-gradient-7"/><clipPath id="clip-path-22"><path class="cls-6" d="M128.92,48.39a53.15,53.15,0,0,1,7.38-7.24,53.15,53.15,0,0,0-7.38,7.24"/></clipPath><linearGradient id="linear-gradient-22" x1="241.88" y1="160.58" x2="247.73" y2="160.58" gradientTransform="matrix(0, 7.59, 7.59, 0, -1086.62, -1797.93)" xlink:href="#linear-gradient-7"/><clipPath id="clip-path-23"><path class="cls-6" d="M93.09,109.35l.22-.07A83.73,83.73,0,0,1,89.13,88a89.18,89.18,0,0,0,4,21.36"/></clipPath><linearGradient id="linear-gradient-23" x1="241.88" y1="155.82" x2="247.73" y2="155.82" gradientTransform="matrix(0, 7.59, 7.59, 0, -1091.89, -1796.18)" xlink:href="#linear-gradient-7"/><clipPath id="clip-path-24"><path class="cls-6" d="M37.11,228.72a54.64,54.64,0,0,1-2.35-5.57,54.64,54.64,0,0,0,2.35,5.57"/></clipPath><mask id="mask" x="34.76" y="223.15" width="2.35" height="5.56" maskUnits="userSpaceOnUse"><rect class="cls-1" x="34.76" y="223.15" width="2.35" height="5.56"/></mask><linearGradient id="linear-gradient-24" x1="251.74" y1="173.23" x2="257.6" y2="173.23" gradientTransform="matrix(0, 38.71, 38.71, 0, -6669.56, -9669.65)" gradientUnits="userSpaceOnUse"><stop offset="0" stop-color="#05c6f3"/><stop offset="0.11" stop-color="#09c7f3"/><stop offset="0.21" stop-color="#14caf3"/><stop offset="0.31" stop-color="#27cef3"/><stop offset="0.4" stop-color="#42d5f3"/><stop offset="0.5" stop-color="#64ddf3"/><stop offset="0.52" stop-color="#6cdff3"/><stop offset="0.53" stop-color="#62ddf3"/><stop offset="0.57" stop-color="#46d6f3"/><stop offset="0.62" stop-color="#2ed0f3"/><stop offset="0.67" stop-color="#1bcbf3"/><stop offset="0.74" stop-color="#0fc8f3"/><stop offset="0.82" stop-color="#07c7f3"/><stop offset="1" stop-color="#05c6f3"/></linearGradient><clipPath id="clip-path-25"><path class="cls-6" d="M104,134.31a.05.05,0,0,1,0,0s0,0,.08,0c2.57,4.63,23.1,34.09,23.1,34.09h0a.81.81,0,0,1,.09.1A54.5,54.5,0,0,1,141,204.68c0,.74,0,1.47,0,2.2a1.88,1.88,0,0,0,0,.34c0,.7-.08,1.41-.14,2.11a2.77,2.77,0,0,1,0,.3c-.06.74-.14,1.46-.24,2.19v0c-.1.78-.22,1.55-.35,2.31l25.22,14.49c.25-.84.49-1.67.72-2.51l.11-.44c.19-.7.36-1.41.54-2.12,0-.15.07-.32.1-.47.19-.85.38-1.69.55-2.55a.21.21,0,0,0,0-.06c.16-.83.3-1.63.43-2.43,0-.21.07-.42.1-.62.11-.72.22-1.44.31-2.15l.06-.43c.1-.84.19-1.69.27-2.54,0-.19,0-.39.05-.59l.15-2c0-.25,0-.48,0-.73,0-.85.08-1.69.1-2.56h0a82.36,82.36,0,0,0-7.05-35.2c-.23-.54-.47-1.06-.73-1.6-.49-1.05-1-2.1-1.55-3.13s-1.1-2.07-1.69-3.08-1.18-2-1.81-3-1.27-1.95-1.93-2.9c-1-1.43-2-2.83-3.11-4.18l.05-.06c-.27-.37-.55-.76-.82-1.15-.09-.12-.18-.23-.26-.36l-.58-.8c-.11-.15-.21-.3-.32-.44s-.33-.47-.49-.7-.26-.35-.39-.54-.3-.43-.46-.64l-.37-.53-.57-.8-.26-.37c-.26-.38-.53-.75-.8-1.13-.13-.17-.25-.35-.38-.53l-.46-.65-.39-.54c-.14-.2-.28-.41-.43-.61s-.27-.4-.42-.59-.25-.37-.38-.54l-.42-.6-.42-.6-.36-.51-.73-1c-.1-.13-.2-.27-.29-.41s-.35-.51-.53-.75l-.22-.31-.5-.72c-.11-.14-.21-.29-.31-.43l-.41-.59-.32-.45c-.13-.2-.27-.38-.4-.58a3.47,3.47,0,0,1-.26-.37l-.62-.87s0,0,0-.07l-4.55-6.52c-3.81.73-16.68,3.29-28.89,6.77"/></clipPath><linearGradient id="linear-gradient-25" x1="251.75" y1="191.95" x2="257.6" y2="191.95" gradientTransform="matrix(0, -11.15, -11.15, 0, 2277.11, 3024.94)" xlink:href="#linear-gradient-7"/><clipPath id="clip-path-26"><path class="cls-6" d="M137.51,134.13s0,0,0-.07,0,.05,0,.07"/></clipPath><linearGradient id="linear-gradient-26" x1="251.75" y1="190.55" x2="257.6" y2="190.55" gradientTransform="matrix(0, -11.15, -11.15, 0, 2262.33, 3021.37)" xlink:href="#linear-gradient-7"/><clipPath id="clip-path-28"><path class="cls-6" d="M23.39,150.49l-.15.16-1,1.16a2.41,2.41,0,0,1-.21.24l-1,1.13c-.08.1-.15.2-.23.29-.31.37-.62.74-.92,1.13a3.45,3.45,0,0,0-.23.28L18.77,156l-.21.27c-.3.38-.6.78-.88,1.17-.06.07-.1.14-.16.2q-.84,1.17-1.65,2.34c-1,1.51-2,3-2.89,4.56l-.1.17c-.23.38-.45.76-.67,1.15l-.22.4-.57,1c-.08.17-.18.34-.27.51-.17.33-.34.67-.52,1l-.27.56-.48,1c-.08.21-.18.4-.27.6s-.29.64-.43,1-.19.41-.27.62-.29.63-.42.95-.17.42-.25.65-.26.62-.38.94-.17.43-.25.64-.23.64-.35,1-.15.44-.22.66c-.38,1.1-.73,2.2-1.06,3.32-.07.28-.15.55-.22.83s-.14.53-.21.8-.15.57-.22.86-.12.53-.18.79-.14.59-.2.87l-.17.79-.17.89c0,.26-.09.53-.13.79s-.11.6-.15.89-.09.53-.11.78-.09.62-.13.93l-.09.76c0,.32-.07.64-.1,1s0,.49-.08.73,0,.69-.07,1,0,.46,0,.69c0,.38,0,.76-.06,1.14,0,.18,0,.37,0,.57,0,.57,0,1.14,0,1.72,0,1.1,0,2.19.08,3.29,0,1.3-.08,2.61-.08,3.92,0,.91,0,1.82,0,2.72,0,.24,0,.48,0,.71,0,.78.08,1.56.13,2.34,0,.12,0,.25,0,.38.06.92.14,1.84.24,2.74,0,.14,0,.28,0,.42.1.83.2,1.65.31,2.47l.06.33c.27,1.89.61,3.75,1,5.6a1,1,0,0,0,0,.16q.62,2.83,1.43,5.58l30.13.59h0a54.64,54.64,0,0,1-2.35-5.57.56.56,0,0,1,0-.12c-.16-.42-.3-.84-.44-1.26,0-.08-.05-.16-.07-.24-.13-.39-.25-.79-.37-1.19,0-.08-.05-.17-.09-.26-.1-.4-.22-.8-.33-1.2a2.1,2.1,0,0,0-.06-.24c-.12-.45-.23-.9-.34-1.34a.43.43,0,0,0,0-.11c-.23-1-.43-2-.62-3a2.51,2.51,0,0,0,0-.27c-.07-.4-.13-.79-.19-1.19,0-.14,0-.29-.06-.45,0-.34-.09-.68-.13-1,0-.17,0-.35-.06-.53s-.07-.64-.1-1,0-.37-.05-.55l-.07-1c0-.18,0-.37,0-.55,0-.35,0-.69-.05-1v-.48c0-.51,0-1,0-1.52a54.78,54.78,0,0,1,2.07-15,56,56,0,0,1,2.07-6c.27-.64.55-1.28.85-1.92.39-.85.81-1.68,1.24-2.51.59-1.12,1.21-2.22,1.87-3.3s1.36-2.12,2.09-3.14c.37-.51.71-1,1-1.56s.65-1.06,1-1.61a1.76,1.76,0,0,0,.14-.23c.33-.52.68-1,1.05-1.55.14-.18.28-.37.43-.55a11.24,11.24,0,0,0-.91,1.13c.48-.68,1-1.35,1.47-2l.47-.6c.35-.45.72-.9,1.08-1.35l.54-.63c.38-.45.76-.88,1.15-1.31l.48-.53c.54-.57,1.08-1.14,1.63-1.69l.05,0c.59-.59,1.2-1.16,1.81-1.72l.34-.31c.5-.45,1-.89,1.52-1.32.15-.14.31-.26.47-.39.5-.42,1-.82,1.5-1.23.15-.1.29-.22.42-.32.64-.49,1.29-1,2-1.46l-34.84-4.35c-.39.4-.76.81-1.13,1.23"/></clipPath><mask id="mask-2" x="3.61" y="149.26" width="55.75" height="79.47" maskUnits="userSpaceOnUse"><rect class="cls-2" x="3.61" y="149.26" width="55.75" height="79.47"/></mask><linearGradient id="linear-gradient-28" x1="251.74" y1="173.14" x2="257.6" y2="173.14" gradientTransform="matrix(0, 38.71, 38.71, 0, -6670.32, -9669.65)" xlink:href="#linear-gradient-24"/><clipPath id="clip-path-30"><path class="cls-6" d="M15.87,160q.81-1.17,1.65-2.34-.84,1.17-1.65,2.34"/></clipPath><mask id="mask-3" x="15.87" y="157.66" width="1.65" height="2.34" maskUnits="userSpaceOnUse"><rect class="cls-3" x="15.87" y="157.66" width="1.65" height="2.34"/></mask><linearGradient id="linear-gradient-29" x1="251.74" y1="172.82" x2="257.6" y2="172.82" gradientTransform="matrix(0, 38.71, 38.71, 0, -6672.85, -9669.65)" xlink:href="#linear-gradient-24"/><clipPath id="clip-path-32"><path class="cls-6" d="M37.79,179.32c.59-1.12,1.21-2.22,1.87-3.3-.66,1.08-1.28,2.18-1.87,3.3"/></clipPath><mask id="mask-4" x="37.79" y="176.02" width="1.87" height="3.3" maskUnits="userSpaceOnUse"><rect class="cls-4" x="37.79" y="176.02" width="1.87" height="3.3"/></mask><linearGradient id="linear-gradient-30" x1="251.74" y1="173.29" x2="257.6" y2="173.29" gradientTransform="matrix(0, 38.71, 38.71, 0, -6669.09, -9669.65)" xlink:href="#linear-gradient-24"/><clipPath id="clip-path-33"><path class="cls-6" d="M36.55,181.83c.39-.85.81-1.68,1.24-2.51-.43.83-.85,1.66-1.24,2.51"/></clipPath><mask id="mask-5" x="36.55" y="179.32" width="1.24" height="2.51" maskUnits="userSpaceOnUse"><rect class="cls-5" x="36.55" y="179.32" width="1.24" height="2.51"/></mask><linearGradient id="linear-gradient-31" x1="251.74" y1="173.26" x2="257.6" y2="173.26" gradientTransform="matrix(0, 38.71, 38.71, 0, -6669.35, -9669.65)" xlink:href="#linear-gradient-24"/><clipPath id="clip-path-35"><path class="cls-6" d="M100.37,40.6l-.07.12c-.26.44-.52.9-.78,1.36l0,0Q98,44.89,96.61,47.79l-.14.29-.55,1.23c-.06.13-.12.27-.17.4-.18.41-.35.82-.52,1.23,0,.12-.1.24-.14.36-.54,1.32-1,2.64-1.52,4-.06.17-.12.34-.17.51L93,56.88c-.08.23-.15.46-.22.68s-.22.69-.32,1-.15.51-.22.77-.2.66-.29,1-.16.56-.23.85-.17.62-.25.93c-.13.56-.28,1.13-.4,1.69-.07.28-.13.55-.19.83s-.15.69-.22,1-.12.57-.17.86-.13.69-.2,1-.1.56-.14.83-.13.74-.19,1.11l-.12.77c-.07.48-.14.95-.2,1.43a3.65,3.65,0,0,1-.07.46l-.21,1.88c0,.21,0,.42-.06.63,0,.43-.08.87-.11,1.32,0,.24,0,.48,0,.72,0,.42-.06.83-.08,1.26,0,.24,0,.48,0,.73,0,.44,0,.88,0,1.33,0,.21,0,.42,0,.63,0,.66,0,1.32,0,2,0,1.56,0,3.13.13,4.72l0,.46V88a83.73,83.73,0,0,0,4.18,21.29l-.22.07a0,0,0,0,0,0,0c4.36-1.21,18.31-5,27-6.72l-.53.09a54.42,54.42,0,0,1-3.42-17.85c0-.44,0-.89,0-1.33s0-1,0-1.51c0-.16,0-.32,0-.49,0-.34,0-.67,0-1s0-.39,0-.57l.07-.93c0-.2,0-.39,0-.59s.06-.61.1-.91,0-.39.07-.57.07-.62.11-.94.05-.36.07-.53c.06-.35.11-.69.17-1,0-.14,0-.28.07-.43.17-1,.37-1.93.59-2.89,0-.11,0-.22.08-.33.08-.36.17-.73.27-1.09,0-.14.08-.29.12-.43.08-.32.17-.65.27-1,0-.15.09-.3.13-.45l.3-1c0-.15.09-.29.14-.43.11-.34.22-.67.34-1l.12-.36c.14-.39.29-.77.43-1.15,0-.07,0-.13.07-.2.37-.92.75-1.84,1.16-2.74v0l.6-1.28.09-.2.56-1.09c0-.08.09-.17.12-.25.2-.35.38-.71.58-1.06l.12-.22c.2-.36.42-.74.63-1.09l.09-.15c.76-1.28,1.58-2.52,2.44-3.74.56-.79,1.14-1.57,1.74-2.33a.1.1,0,0,0,0,0l.89-1.09a.23.23,0,0,0,0,0,53.15,53.15,0,0,1,7.38-7.24h0l-30.49-8.67a84.62,84.62,0,0,0-5.44,8.13"/></clipPath><linearGradient id="linear-gradient-33" x1="241.88" y1="158.27" x2="247.73" y2="158.27" gradientTransform="matrix(0, 7.59, 7.59, 0, -1088.97, -1796.9)" xlink:href="#linear-gradient-7"/><clipPath id="clip-path-36"><path class="cls-6" d="M116.94,74c.17-1,.37-1.93.59-2.89-.22,1-.42,1.92-.59,2.89"/></clipPath><linearGradient id="linear-gradient-34" x1="241.88" y1="158.77" x2="247.73" y2="158.77" gradientTransform="matrix(0, 7.59, 7.59, 0, -1088.31, -1797.27)" xlink:href="#linear-gradient-7"/><clipPath id="clip-path-38"><path class="cls-6" d="M126.2,51.91c.56-.79,1.14-1.57,1.74-2.33-.6.76-1.18,1.54-1.74,2.33"/></clipPath><linearGradient id="linear-gradient-36" x1="241.88" y1="159.94" x2="247.73" y2="159.94" gradientTransform="matrix(0, 7.59, 7.59, 0, -1087.36, -1797.7)" xlink:href="#linear-gradient-7"/><clipPath id="clip-path-40"><path class="cls-6" d="M119.8,63.76c.37-.92.75-1.84,1.16-2.74-.41.9-.79,1.82-1.16,2.74"/></clipPath><linearGradient id="linear-gradient-38" x1="241.88" y1="159.16" x2="247.73" y2="159.16" gradientTransform="matrix(0, 7.59, 7.59, 0, -1088.12, -1797.41)" xlink:href="#linear-gradient-7"/><clipPath id="clip-path-42"><path class="cls-6" d="M166.23,98l-1.09,0c-1.48,0-3,.06-4.45.12h-.07c-1.47.06-2.93.12-4.4.2l-1,0c-1.49.08-3,.17-4.45.27h0c-1.49.12-2.95.23-4.41.36l-.83.07q-4.46.4-8.84.94l-.71.09c-1.37.17-2.73.35-4.09.55l-.32,0,6.12,26.05h0c5.32-.76,10.73-1.35,16.22-1.74l.37,0c1.25-.09,2.51-.18,3.77-.24l.87,0,3.3-.15,1.81,0,2.39-.06c1.41,0,2.83,0,4.24,0A233.84,233.84,0,0,1,203,126.67l2.9.43c8.38-12.86,13.17-21.75,14.66-24.6q-9.69-1.81-19.86-2.91c-10-1-20.38-1.61-30-1.61-1.49,0-3,0-4.48,0"/></clipPath><linearGradient id="linear-gradient-40" x1="238.68" y1="180.59" x2="244.54" y2="180.59" gradientTransform="matrix(0, 9.44, 9.44, 0, -1527.88, -2173.05)" xlink:href="#linear-gradient-7"/><clipPath id="clip-path-43"><path class="cls-6" d="M131.58,100.73l.32,0-.32,0"/></clipPath><linearGradient id="linear-gradient-41" x1="238.68" y1="181.54" x2="244.54" y2="181.54" gradientTransform="matrix(0, 9.44, 9.44, 0, -1581.2, -2140.24)" xlink:href="#linear-gradient-7"/><clipPath id="clip-path-44"><path class="cls-6" d="M235.68,133.84c18.44,5.61,33.62,14.7,48,24.41a.67.67,0,0,1-.14-.09,20.71,20.71,0,0,1,2.38,2c.64.44,1.27.9,1.89,1.37l.37.29c.6.46,1.19.93,1.77,1.42l.3.25c.54.46,1.07.93,1.6,1.41l.2.2c.56.52,1.1,1,1.64,1.6l.33.33c.54.55,1.07,1.11,1.58,1.69l.11.12c.49.57,1,1.13,1.45,1.71l.23.29c.48.6.95,1.21,1.41,1.84l.23.3c.46.65.91,1.29,1.35,1.95s.87,1.35,1.27,2c.07.11.13.22.2.32.41.69.79,1.39,1.16,2.08,0,.06.07.13.1.18.36.69.71,1.4,1,2.1l.09.19c.34.72.66,1.46,1,2.21,0,.1.09.21.13.32.61,1.51,1.17,3.06,1.64,4.66l.08.27c.24.79.46,1.58.65,2.38a2.27,2.27,0,0,1,.06.25c.2.82.38,1.64.55,2.47l28.89-5.62c-.06-.41-.12-.81-.19-1.22,0-.15-.05-.3-.07-.46l-.21-1.1c0-.19-.07-.37-.11-.56-.07-.36-.14-.7-.22-1.06-.05-.2-.09-.4-.13-.6s-.17-.68-.26-1l-.15-.63c-.09-.33-.19-.67-.27-1s-.12-.41-.19-.62-.19-.67-.29-1l-.19-.62c-.11-.33-.21-.67-.33-1s-.14-.4-.2-.61-.24-.67-.37-1l-.21-.58c-.13-.35-.26-.69-.4-1l-.21-.53c-.14-.35-.28-.71-.44-1.07-.05-.13-.11-.25-.16-.37q-.91-2.13-2-4.18l0-.05c-.18-.36-.38-.73-.57-1.1-.08-.15-.16-.31-.24-.45-.19-.33-.37-.67-.57-1s-.2-.36-.3-.54c-.18-.33-.37-.64-.55-1l-.35-.58-.57-.92-.38-.61c-.18-.29-.38-.6-.58-.89s-.26-.41-.39-.61-.4-.6-.61-.89-.27-.4-.42-.61l-.62-.87c-.14-.21-.29-.41-.44-.6s-.43-.59-.64-.88l-.45-.59-.67-.88-.45-.55c-.24-.31-.47-.6-.72-.9s-.26-.33-.4-.48c-.26-.33-.52-.64-.79-1l-.08-.08c-.67-.79-1.35-1.57-2.07-2.34l-.29-.33-.8-.86-.51-.55c-.25-.27-.51-.53-.78-.79s-.38-.41-.58-.6-.51-.51-.77-.76l-.61-.62-.78-.74-.65-.61-.78-.74c-.22-.2-.46-.4-.67-.6l-.81-.73-.69-.61-.82-.71-.71-.61-.82-.69-.76-.61-.83-.68-.78-.62-.83-.65-.81-.64-.83-.62-1-.73-1.37-1-1-.71-.83-.57-.92-.64-.86-.58L295,131l-.88-.58-.94-.61-.89-.56-.95-.6-.91-.55c-.32-.21-.64-.4-1-.59l-.93-.55-1-.59-.92-.53-1-.58-.92-.52-1.07-.59-.9-.48-1.14-.61c-.29-.14-.58-.31-.86-.45l-1.26-.65-.78-.4q-.92-.47-1.83-.9l-.54-.26c-.58-.29-1.17-.58-1.76-.85l-.78-.36-1.35-.63-.89-.4-1.25-.56-1-.42c-.41-.18-.82-.36-1.23-.52s-.65-.29-1-.42l-1.24-.51-1-.41-1.23-.5-1-.4-1.26-.49-1-.38-1.29-.49-1-.36-1.34-.49-1-.35-1.4-.48-1-.33-1.57-.53-.78-.25-2.38-.77v0a157.67,157.67,0,0,1-13,24.41"/></clipPath><linearGradient id="linear-gradient-42" x1="251.48" y1="181.23" x2="257.33" y2="181.23" gradientTransform="matrix(0, -9.63, -9.63, 0, 2032.45, 2596.67)" xlink:href="#linear-gradient-7"/><clipPath id="clip-path-45"><path class="cls-6" d="M235,134.84h0l.59-.8,0-.06c-.2.28-.38.57-.58.85"/></clipPath><linearGradient id="linear-gradient-43" x1="251.48" y1="182.59" x2="257.33" y2="182.59" gradientTransform="matrix(0, -9.63, -9.63, 0, 1994.39, 2630.84)" xlink:href="#linear-gradient-7"/><clipPath id="clip-path-46"><path class="cls-6" d="M132.9,127.52a0,0,0,0,1,0,0l.22,0v0Z"/></clipPath><linearGradient id="linear-gradient-44" x1="251.75" y1="190.67" x2="257.6" y2="190.67" gradientTransform="matrix(0, -11.15, -11.15, 0, 2259.32, 3022.5)" xlink:href="#linear-gradient-7"/><linearGradient id="linear-gradient-45" x1="282" y1="199.79" x2="287.86" y2="199.79" gradientTransform="matrix(0, -3.83, -3.83, 0, 898.66, 1216.92)" xlink:href="#linear-gradient-7"/><clipPath id="clip-path-48"><path class="cls-6" d="M121.56,102.37c-.45.07-.91.16-1.39.25.55-.1,1.11-.19,1.66-.3a1.17,1.17,0,0,0-.27.05"/></clipPath><linearGradient id="linear-gradient-46" x1="280.71" y1="194.12" x2="286.56" y2="194.12" gradientTransform="matrix(0, -4.54, -4.54, 0, 1002.91, 1393.29)" xlink:href="#linear-gradient-7"/><clipPath id="clip-path-49"><path class="cls-6" d="M220.7,102.3l.12,0,.26-.75-.38.73"/></clipPath><linearGradient id="linear-gradient-47" x1="275.43" y1="186.92" x2="281.29" y2="186.92" gradientTransform="matrix(0, -2.5, -2.5, 0, 687.78, 809.06)" xlink:href="#linear-gradient-7"/><clipPath id="clip-path-50"><path class="cls-6" d="M205.69,127.5l0,0,.25-.39h0l-.07,0-.25.4"/></clipPath><linearGradient id="linear-gradient-48" x1="238.35" y1="179.36" x2="244.21" y2="179.36" gradientTransform="matrix(0, 9.09, 9.09, 0, -1425.02, -2101.3)" xlink:href="#linear-gradient-7"/><linearGradient id="linear-gradient-49" x1="276.9" y1="197.59" x2="282.76" y2="197.59" gradientTransform="matrix(0, -2.37, -2.37, 0, 674.73, 800.03)" xlink:href="#linear-gradient-7"/><clipPath id="clip-path-52"><path class="cls-6" d="M220.6,102.5l.15,0,.07-.2-.12,0a1.86,1.86,0,0,1-.1.2"/></clipPath><linearGradient id="linear-gradient-50" x1="238.68" y1="181.56" x2="244.54" y2="181.56" gradientTransform="matrix(0, 9.44, 9.44, 0, -1492.49, -2227.52)" xlink:href="#linear-gradient-7"/><linearGradient id="linear-gradient-51" x1="275.43" y1="187.07" x2="281.29" y2="187.07" gradientTransform="matrix(0, -2.5, -2.5, 0, 688, 809.4)" xlink:href="#linear-gradient-7"/><clipPath id="clip-path-54"><path class="cls-6" d="M235.58,134a.78.78,0,0,1,.1-.15,1.39,1.39,0,0,0-.19-.06l-.18-.06.27.27"/></clipPath><linearGradient id="linear-gradient-52" x1="268.28" y1="191.53" x2="274.14" y2="191.53" gradientTransform="matrix(0, -2.72, -2.72, 0, 756.84, 870.12)" xlink:href="#linear-gradient-7"/></defs><title>Artboard 1</title><g class="cls-7"><g class="cls-8"><path class="cls-9" d="M337.82,197.46c0-38.18-36.14-71.33-89.16-88a83.28,83.28,0,0,0,4.41-26.79C253.07,37,216.33,0,171,0S89,37,89,82.66a83.4,83.4,0,0,0,4.35,26.62C40,125.9,3.61,159.15,3.61,197.46c0,1.11,0,2.2.09,3.3-.06,1.29-.09,2.61-.09,3.92A82.65,82.65,0,1,0,151,153.33l.05-.05c-7.86-10.93-17.38-24.61-18.18-25.77,1.48-.24,3-.48,4.49-.7a234.5,234.5,0,0,1,65.66-.14l3,.44a.07.07,0,0,1,0,0c-5.19,7.48-12.41,19.65-18,29.45A82.7,82.7,0,0,0,179.22,172l0,.06a0,0,0,0,1,0,0,82.66,82.66,0,1,0,158.64,32.56c0-1.31,0-2.63-.08-3.92.06-1.1.08-2.19.08-3.3M127.23,168.4h0l.09.1a54.7,54.7,0,1,1-85.53,4.39c.73-1,1.39-2.09,2-3.17a20.63,20.63,0,0,1,1.62-2.33,14.05,14.05,0,0,0-.91,1.13c13.4-19.21,36.17-27.11,59.65-34.19,2.57,4.63,23.1,34.08,23.1,34.08ZM170.71,98a273.14,273.14,0,0,0-51.14,4.75,54,54,0,1,1,101.18-.21,273.15,273.15,0,0,0-50-4.54m84.46,160.8a54.1,54.1,0,0,1-43.75-85.93,6.9,6.9,0,0,0,.79-1.4h0c-.11.23-.22.45-.32.68,6.31-14.83,23.75-38.07,23.75-38.07l-.34-.33.19.06c18.56,5.61,33.81,14.75,48.23,24.51l-.2-.13a21.78,21.78,0,0,1,2.38,2,54.1,54.1,0,0,1-30.73,98.63"/><path class="cls-9" d="M96.61,47.78c.89-1.93,1.86-3.82,2.89-5.67-1,1.85-2,3.74-2.89,5.67"/><path class="cls-9" d="M330.63,168.49c.7,1.38,1.35,2.78,2,4.18-.61-1.4-1.26-2.8-2-4.18"/><path class="cls-9" d="M5.51,222.39q-.6-2.76-1-5.6.42,2.84,1,5.6"/><path class="cls-9" d="M89.1,87.38C89,85.79,89,84.22,89,82.65c0,1.59,0,3.16.13,4.73"/><path class="cls-9" d="M6,180.66c.32-1.11.66-2.22,1-3.31-.39,1.09-.73,2.2-1,3.31"/><path class="cls-9" d="M13,164.56c.91-1.54,1.88-3.05,2.9-4.56-1,1.51-2,3-2.9,4.56"/><path class="cls-9" d="M200.74,99.59a277.68,277.68,0,0,0-30-1.61c9.65,0,20,.59,30,1.61"/><path class="cls-9" d="M211.89,172.12q.13-.31.3-.63h0q-.16.31-.3.63"/><path class="cls-9" d="M145.54,99.11c-3,.27-5.93.59-8.84.94,2.91-.35,5.86-.67,8.84-.94"/><path class="cls-9" d="M45,167.94c-.37.5-.73,1-1.05,1.54.32-.52.68-1,1.05-1.54"/></g><g class="cls-10"><rect class="cls-11" x="212.2" y="171.44" width="0.02" height="0.03"/></g><g class="cls-8"><polygon class="cls-9" points="212.2 171.47 212.19 171.48 212.2 171.48 212.2 171.47"/></g><g class="cls-12"><rect class="cls-13" x="212.19" y="171.47" width="0.01" height="0.01"/></g><g class="cls-8"><path class="cls-9" d="M212.2,171.46h0l0,0Z"/></g><g class="cls-14"><rect class="cls-15" x="212.2" y="171.44" width="0.01" height="0.03"/></g><g class="cls-8"><polygon class="cls-9" points="212.2 171.48 212.2 171.46 212.2 171.47 212.2 171.48"/></g><g class="cls-16"><rect class="cls-17" x="212.2" y="171.46" width="0.01" height="0.01"/></g><g class="cls-18"><rect class="cls-19" x="212.08" y="171.48" width="0.11" height="0.25"/></g><g class="cls-8"><path class="cls-9" d="M212.19,171.49c0,.08-.08.15-.11.23a2.53,2.53,0,0,1-.12.23,1.11,1.11,0,0,1-.07.16c.09-.21.19-.42.3-.62"/></g><g class="cls-20"><rect class="cls-21" x="211.9" y="171.49" width="0.29" height="0.63"/></g><g class="cls-22"><rect class="cls-23" x="303.77" y="184.66" width="4.74" height="4.06" transform="translate(-24.58 325.25) rotate(-54.11)"/></g><g class="cls-24"><rect class="cls-25" x="144.8" y="117.77" width="2.1" height="16.26" transform="translate(16.7 268.89) rotate(-88.71)"/></g><g class="cls-26"><rect class="cls-27" x="204.05" y="125.63" width="0.9" height="2.92" transform="translate(72.84 328.68) rotate(-88.71)"/></g><g class="cls-28"><rect class="cls-29" x="209.04" y="91.03" width="3.36" height="20.02" transform="translate(104.97 309.44) rotate(-88.71)"/></g><g class="cls-30"><rect class="cls-31" x="131.85" y="126.89" width="6.69" height="7.79" transform="translate(-39.51 61.06) rotate(-22.29)"/></g><g class="cls-32"><rect class="cls-33" x="137.37" y="134.05" width="0.9" height="1.03" transform="translate(-40.75 62.34) rotate(-22.29)"/></g><g class="cls-34"><rect class="cls-35" x="98.45" y="131.2" width="34.38" height="40.33" transform="translate(-48.78 55.18) rotate(-22.29)"/></g><g class="cls-36"><rect class="cls-37" x="115.78" y="84.81" width="4.68" height="17.99" transform="translate(-3.75 4.93) rotate(-2.35)"/></g><g class="cls-38"><rect class="cls-39" x="123.68" y="51.87" width="2.59" height="3.83" transform="translate(-2.1 5.18) rotate(-2.35)"/></g><g class="cls-40"><rect class="cls-41" x="128.77" y="41" width="7.67" height="7.54" transform="translate(-1.73 5.48) rotate(-2.35)"/></g><g class="cls-42"><rect class="cls-43" x="88.7" y="87.92" width="5.05" height="21.51" transform="translate(-3.97 3.83) rotate(-2.35)"/></g><g class="cls-44"><g class="cls-45"><rect class="cls-46" x="34.76" y="223.15" width="2.35" height="5.56"/></g></g><g class="cls-47"><rect class="cls-48" x="87.29" y="118.97" width="98.61" height="118.24" transform="translate(-57.35 65.13) rotate(-22.29)"/></g><g class="cls-49"><rect class="cls-50" x="137.46" y="134.05" width="0.07" height="0.08" transform="translate(-40.59 62.19) rotate(-22.3)"/></g><g class="cls-49"><rect class="cls-50" x="137.46" y="134.05" width="0.07" height="0.08" transform="translate(-40.59 62.19) rotate(-22.3)"/></g><g class="cls-51"><g class="cls-52"><rect class="cls-53" x="3.61" y="149.26" width="55.75" height="79.47"/></g></g><g class="cls-8"><path class="cls-9" d="M15.87,160c.54-.78,1.09-1.57,1.65-2.34-.56.77-1.11,1.56-1.65,2.34"/></g><g class="cls-54"><g class="cls-55"><rect class="cls-56" x="15.87" y="157.66" width="1.65" height="2.34"/></g></g><g class="cls-8"><path class="cls-9" d="M39.66,176c-.66,1.08-1.28,2.18-1.87,3.3.59-1.12,1.21-2.22,1.87-3.3"/></g><g class="cls-57"><g class="cls-58"><rect class="cls-59" x="37.79" y="176.02" width="1.87" height="3.3"/></g></g><g class="cls-60"><g class="cls-61"><rect class="cls-62" x="36.55" y="179.32" width="1.24" height="2.51"/></g></g><g class="cls-60"><g class="cls-61"><rect class="cls-62" x="36.55" y="179.32" width="1.24" height="2.51"/></g></g><g class="cls-63"><rect class="cls-64" x="87.41" y="31.54" width="50.45" height="78.77" transform="translate(-2.82 4.68) rotate(-2.35)"/></g><g class="cls-65"><rect class="cls-66" x="116.89" y="71.14" width="0.7" height="2.91" transform="translate(-2.88 4.88) rotate(-2.35)"/></g><g class="cls-65"><rect class="cls-66" x="116.89" y="71.14" width="0.7" height="2.91" transform="translate(-2.88 4.88) rotate(-2.35)"/></g><g class="cls-67"><rect class="cls-68" x="126.15" y="49.55" width="1.84" height="2.4" transform="matrix(1, -0.04, 0.04, 1, -1.98, 5.26)"/></g><g class="cls-67"><rect class="cls-68" x="126.15" y="49.55" width="1.84" height="2.4" transform="matrix(1, -0.04, 0.04, 1, -1.98, 5.26)"/></g><g class="cls-69"><rect class="cls-70" x="119.75" y="61" width="1.26" height="2.78" transform="translate(-2.46 5) rotate(-2.35)"/></g><g class="cls-69"><rect class="cls-70" x="119.75" y="61" width="1.26" height="2.78" transform="translate(-2.46 5) rotate(-2.35)"/></g><g class="cls-71"><rect class="cls-72" x="160.53" y="67.71" width="31.12" height="89.66" transform="translate(59.63 286.06) rotate(-88.71)"/></g><g class="cls-73"><rect class="cls-74" x="131.71" y="100.55" width="0.05" height="0.32" transform="translate(28.09 230.15) rotate(-88.71)"/></g><g class="cls-75"><rect class="cls-76" x="222.27" y="85.89" width="128.34" height="132.05" transform="translate(-4.56 294.89) rotate(-54.11)"/></g><g class="cls-77"><rect class="cls-78" x="234.78" y="133.9" width="1.07" height="1.02" transform="translate(-11.54 246.24) rotate(-54.11)"/></g><g class="cls-79"><rect class="cls-80" x="132.9" y="127.43" width="0.25" height="0.16" transform="translate(-38.43 59.99) rotate(-22.29)"/></g><g class="cls-79"><rect class="cls-81" x="132.92" y="127.39" width="0.2" height="0.24" transform="translate(-48.27 160.5) rotate(-54.1)"/></g><g class="cls-82"><rect class="cls-83" x="120.39" y="101.71" width="1.22" height="1.53" transform="translate(-32.95 140.42) rotate(-54.11)"/></g><g class="cls-84"><rect class="cls-85" x="220.48" y="101.57" width="0.83" height="0.74" transform="translate(8.8 221.12) rotate(-54.11)"/></g><g class="cls-86"><rect class="cls-87" x="205.63" y="127.14" width="0.42" height="0.33" transform="translate(73.95 330.24) rotate(-88.71)"/></g><g class="cls-86"><rect class="cls-88" x="205.58" y="127.05" width="0.53" height="0.5" transform="translate(-17.97 219.43) rotate(-54.11)"/></g><g class="cls-89"><rect class="cls-90" x="220.6" y="102.3" width="0.22" height="0.22" transform="translate(113.36 320.76) rotate(-88.71)"/></g><g class="cls-89"><rect class="cls-91" x="220.56" y="102.26" width="0.3" height="0.3" transform="translate(8.35 221.17) rotate(-54.11)"/></g><g class="cls-92"><rect class="cls-93" x="235.28" y="133.63" width="0.43" height="0.45" transform="translate(-11.01 246.16) rotate(-54.11)"/></g></g></svg>
